<?xml version="1.0" encoding="UTF-8"?>
<svg width="210px" height="31px" viewBox="0 0 210 31" version="1.1" xmlns="http://www.w3.org/2000/svg" xmlns:xlink="http://www.w3.org/1999/xlink">
    <!-- Generator: sketchtool 51.2 (57519) - http://www.bohemiancoding.com/sketch -->
    <title>FFDFF4A0-5713-4182-90E3-D3FCDE67E1E6</title>
    <desc>Created with sketchtool.</desc>
    <defs>
        <polygon id="path-1" points="0 0.931115187 132.635867 0.931115187 132.635867 26.9994 0 26.9994"></polygon>
    </defs>
    <g id="Welcome" stroke="none" stroke-width="1" fill="none" fill-rule="evenodd">
        <g id="Fernandez-Web-FINAL" transform="translate(-615.000000, -894.000000)">
            <g id="Bienvenidos" transform="translate(0.000000, 669.000000)">
                <g id="Firulete" transform="translate(615.000000, 225.000000)">
                    <g id="Group-3" transform="translate(0.000000, 3.451800)">
                        <mask id="mask-2" fill="white">
                            <use xlink:href="#path-1"></use>
                        </mask>
                        <g id="Clip-2"></g>
                        <path d="M61.6081,9.0064 C61.4351,9.3714 61.2891,9.7574 61.1731,10.1614 C60.8551,11.2754 61.0771,13.6664 62.1601,15.0284 C62.6851,15.6914 63.3161,15.9964 64.0911,15.9534 C64.7461,15.9204 65.1821,15.6724 65.4261,15.1954 C65.8631,14.3394 65.6141,12.9254 65.1061,12.1434 C64.3431,10.9674 63.1331,9.8894 61.6081,9.0064 M111.1971,13.8024 C112.4111,14.4984 113.6441,15.1964 114.8731,15.8694 C118.3021,17.7454 122.3111,19.6754 126.5141,18.8454 C128.3831,18.4744 129.9431,17.4144 130.6891,16.0104 C131.2401,14.9674 131.2851,13.8314 130.8161,12.7254 C129.6551,9.9834 124.5271,9.4344 121.2561,9.9174 C117.7601,10.4364 113.9921,11.8064 111.1971,13.8024 M111.9291,26.9994 C111.0591,26.9994 110.1391,26.8194 109.2391,26.4414 C106.8421,25.4334 104.4841,22.7374 105.7301,18.4584 C106.2151,16.7904 107.2231,15.3054 108.5661,14.0194 L107.3401,13.3134 C99.0681,8.5574 90.5161,3.6394 80.6841,2.5944 C74.8081,1.9694 65.9081,2.9574 62.3801,7.7204 C64.1001,8.7234 65.4791,9.9624 66.3641,11.3264 C67.1031,12.4654 67.4931,14.4464 66.7611,15.8784 C66.2741,16.8324 65.3521,17.3914 64.1661,17.4504 C62.9131,17.5124 61.8101,16.9994 60.9851,15.9624 C59.6531,14.2854 59.2611,11.3964 59.7311,9.7494 C59.8751,9.2454 60.0551,8.7694 60.2691,8.3174 C60.0771,8.2314 59.8831,8.1474 59.6851,8.0664 C53.3611,5.4804 46.1701,8.4434 40.9201,10.6044 C33.5231,13.6504 26.2941,15.1934 19.4341,15.1934 L19.3711,15.1934 C15.9001,15.1884 4.2521,14.5824 0.0921,6.9924 C-0.1069,6.6294 0.0261,6.1744 0.3901,5.9754 C0.7531,5.7764 1.2091,5.9084 1.4081,6.2734 C4.3981,11.7294 12.6491,13.6834 19.3731,13.6934 L19.4341,13.6934 C26.0971,13.6934 33.1341,12.1874 40.3491,9.2174 C45.8401,6.9574 53.3581,3.8614 60.2521,6.6774 C60.5141,6.7834 60.7711,6.8964 61.0231,7.0134 C65.0631,1.1794 75.3461,0.5174 80.8421,1.1034 C90.9891,2.1814 100.0731,7.4034 108.0881,12.0124 L109.3451,12.7364 C109.4861,12.8194 109.6281,12.9004 109.7701,12.9824 C112.8871,10.5644 117.1921,9.0034 121.0361,8.4344 C124.6601,7.8954 130.6311,8.4394 132.1971,12.1404 C132.8401,13.6534 132.7741,15.2784 132.0141,16.7124 C131.0611,18.5124 129.1131,19.8594 126.8051,20.3174 C122.1101,21.2494 117.8141,19.1884 114.1531,17.1864 C112.7381,16.4104 111.3221,15.6054 109.9351,14.8074 C108.5981,16.0004 107.6091,17.3704 107.1701,18.8784 C105.9511,23.0664 108.8911,24.6674 109.8201,25.0584 C111.8081,25.8944 113.9561,25.5014 114.7081,24.1634 C114.9111,23.8034 115.3691,23.6744 115.7311,23.8774 C116.0911,24.0804 116.2191,24.5374 116.0161,24.8994 C115.2531,26.2544 113.6931,26.9994 111.9291,26.9994" id="Fill-1" fill="#DCDCDC" mask="url(#mask-2)"></path>
                    </g>
                    <path d="M147.4914,12.4582 C145.9674,13.3412 144.7574,14.4192 143.9934,15.5952 C143.4854,16.3772 143.2364,17.7912 143.6744,18.6472 C143.9184,19.1242 144.3534,19.3722 145.0094,19.4052 C145.7814,19.4382 146.4144,19.1422 146.9394,18.4802 C148.0224,17.1182 148.2444,14.7272 147.9274,13.6132 C147.8104,13.2092 147.6654,12.8232 147.4914,12.4582 M85.5944,13.2122 C82.5954,13.2122 79.2004,14.0102 78.2834,16.1772 C77.8144,17.2832 77.8594,18.4192 78.4114,19.4622 C79.1564,20.8662 80.7164,21.9262 82.5874,22.2972 C86.7874,23.1302 90.7974,21.1972 94.2264,19.3212 C95.4554,18.6482 96.6884,17.9502 97.9034,17.2542 C95.1074,15.2582 91.3394,13.8882 87.8444,13.3692 C87.1584,13.2682 86.3894,13.2122 85.5944,13.2122 M97.1714,30.4512 C95.4064,30.4512 93.8464,29.7062 93.0834,28.3512 C92.8804,27.9892 93.0084,27.5322 93.3694,27.3292 C93.7294,27.1262 94.1884,27.2552 94.3914,27.6152 C95.1434,28.9522 97.2904,29.3462 99.2794,28.5102 C100.2094,28.1192 103.1494,26.5182 101.9294,22.3302 C101.4914,20.8222 100.5024,19.4522 99.1654,18.2592 C97.7774,19.0572 96.3624,19.8622 94.9464,20.6372 C91.2854,22.6392 86.9874,24.6942 82.2954,23.7692 C79.9874,23.3112 78.0394,21.9642 77.0864,20.1642 C76.3264,18.7302 76.2604,17.1052 76.9024,15.5922 C78.4694,11.8902 84.4374,11.3472 88.0634,11.8862 C91.9074,12.4552 96.2124,14.0162 99.3294,16.4342 C99.4714,16.3522 99.6134,16.2712 99.7554,16.1882 L101.0124,15.4642 C109.0274,10.8552 118.1104,5.6332 128.2574,4.5552 C133.7514,3.9692 144.0364,4.6322 148.0774,10.4652 C148.3284,10.3482 148.5854,10.2352 148.8474,10.1292 C155.7424,7.3122 163.2614,10.4092 168.7514,12.6692 C175.9654,15.6392 183.0024,17.1452 189.6654,17.1452 L189.7264,17.1452 C196.4514,17.1352 204.7024,15.1812 207.6914,9.7252 C207.8904,9.3592 208.3474,9.2292 208.7104,9.4272 C209.0734,9.6262 209.2064,10.0812 209.0074,10.4442 C204.8474,18.0342 193.2004,18.6402 189.7284,18.6452 C182.8574,18.6652 175.5994,17.1102 168.1794,14.0562 C162.9304,11.8952 155.7404,8.9352 149.4154,11.5182 C149.2174,11.5992 149.0224,11.6832 148.8314,11.7692 C149.0444,12.2212 149.2244,12.6972 149.3684,13.2012 C149.8394,14.8482 149.4474,17.7372 148.1144,19.4142 C147.2894,20.4512 146.1804,20.9622 144.9334,20.9022 C143.7484,20.8432 142.8264,20.2842 142.3394,19.3302 C141.6064,17.8982 141.9974,15.9172 142.7354,14.7782 C143.6214,13.4142 144.9994,12.1752 146.7204,11.1722 C143.1914,6.4092 134.2954,5.4192 128.4154,6.0462 C118.5844,7.0912 110.0314,12.0092 101.7604,16.7652 L100.5344,17.4712 C101.8764,18.7572 102.8844,20.2432 103.3704,21.9102 C104.6164,26.1892 102.2584,28.8852 99.8604,29.8932 C98.9614,30.2712 98.0414,30.4512 97.1714,30.4512" id="Fill-4" fill="#DCDCDC"></path>
                    <path d="M104.55,10.2443 C104.396,10.2443 104.241,10.1973 104.11,10.1013 C100.337,7.3703 86.927,-0.0267 75.218,1.7883 C74.806,1.8513 74.425,1.5703 74.363,1.1623 C74.299,0.7523 74.58,0.3693 74.989,0.3063 C86.857,-1.5317 99.922,5.3813 104.55,8.5763 C109.178,5.3813 122.24,-1.5267 134.111,0.3063 C134.52,0.3693 134.801,0.7523 134.737,1.1623 C134.674,1.5703 134.29,1.8503 133.881,1.7883 C122.177,-0.0167 108.764,7.3703 104.99,10.1013 C104.859,10.1973 104.704,10.2443 104.55,10.2443" id="Fill-6" fill="#DCDCDC"></path>
                </g>
            </g>
        </g>
    </g>
</svg>