<?xml version="1.0" encoding="utf-8"?>
<!-- Generator: Adobe Illustrator 23.0.3, SVG Export Plug-In . SVG Version: 6.00 Build 0)  -->
<svg version="1.1" id="Layer_1" xmlns="http://www.w3.org/2000/svg" xmlns:xlink="http://www.w3.org/1999/xlink" x="0px" y="0px"
	 viewBox="0 0 421.08 447.64" style="enable-background:new 0 0 421.08 447.64;" xml:space="preserve">
<style type="text/css">
	.st0{fill:#052C48;}
	.st1{fill:#D92A36;}
</style>
<g>
	<g>
		<g>
			<g>
				<g>
					<g>
						<g>
							<g>
								<g>
									<path class="st0" d="M336.49,334.16l-0.84-2.28l1.08-1.08v-2.34l-1.56-1.56h-5.2l0.3,0.96v6.48l-0.3,0.96h2.9l-0.3-0.96
										v-1.74l0.12-0.12h0.64l0.24,0.12l0.9,2.7h2.68L336.49,334.16z M334.37,329.84l-0.24,0.48l-0.48,0.24h-0.96l-0.12-0.12v-1.5
										l0.12-0.12h0.96l0.48,0.24l0.24,0.48V329.84z"/>
									<path class="st0" d="M333.17,323.29c-4.42,0-8,3.58-8,8c0,4.42,3.58,8,8,8c4.42,0,8-3.58,8-8
										C341.17,326.88,337.59,323.29,333.17,323.29z M333.17,337.9c-3.65,0-6.6-2.96-6.6-6.6s2.96-6.6,6.6-6.6s6.6,2.96,6.6,6.6
										S336.81,337.9,333.17,337.9z"/>
								</g>
							</g>
							<g>
								<path class="st0" d="M47.06,266.95H15.68L0,251.26v-47.06l15.68-15.68h30.25l7.62,22.97l-13.44-4.48h-7.62l-6.72,3.36
									l-2.8,5.6v23.53l2.8,5.6l6.72,3.36h8.74l13.44-4.48L47.06,266.95z"/>
								<path class="st0" d="M171.99,204.21v62.74h-14l-22.41-36.97l-2.24-4.48l0.56,4.48v29.13l2.58,7.84h-22.52l2.58-7.84v-54.9
									l-3.14-7.84h22.18l17.93,29.69l2.24,4.48l-0.56-4.48v-21.85l-2.58-7.84h21.96L171.99,204.21z"/>
								<path class="st0" d="M225.44,213.17h-8.07l-1.12,1.12v43.7l3.03,8.96h-26.22l3.03-8.96v-43.7l-1.12-1.12h-8.07l-10.64,3.59
									l6.95-20.39h45.94l6.95,20.39L225.44,213.17z"/>
								<path class="st0" d="M276.42,266.95l-7.51-22.41l-2.24-1.12h-5.6l-1.12,1.12v14.57l2.58,7.84h-24.76l2.58-7.84v-54.9
									l-2.58-7.84h45.15l13.44,13.45v19.05l-9.52,9.52l7.28,19.05l5.6,9.52H276.42z M276.2,219.33l-2.24-4.48l-4.48-2.24h-8.4
									l-1.12,1.12v13.44l1.12,1.12h8.4l4.48-2.24l2.24-4.48V219.33z"/>
								<path class="st0" d="M341.19,266.95l1.12-7.84l-1.46-6.16l-1.12-1.12h-17.37l-1.12,1.12l-1.34,6.16l1.12,7.84h-24.43
									l4.03-7.84l14.79-56.02l-1.68-6.72h35.85l-1.68,6.72l14.79,56.02l3.92,7.84H341.19z M331.33,214.29l-0.56-3.92l-0.56,3.92
									l-5.04,21.29l1.12,1.12h9.3l1.12-1.12L331.33,214.29z"/>
								<path class="st0" d="M413.46,266.95h-45.94l2.8-8.96v-60.5l-2.8-8.96h28.01l-3.36,10.08v47.62l1.68,1.68h15.68l11.54-3.92
									L413.46,266.95z"/>
								<polygon class="st0" points="100.84,250.14 82.92,250.14 81.23,248.46 81.23,240.9 82.35,239.78 93.96,239.78 
									101.24,242.24 101.24,221.07 93.96,223.53 82.35,223.53 81.23,222.41 81.23,220.45 81.23,213.73 82.35,212.61 99.72,212.61 
									108.91,215.64 102.52,196.36 59.05,196.36 61.63,204.21 61.63,259.11 59.05,266.95 104.2,266.95 110.93,246.78 								"/>
							</g>
						</g>
					</g>
				</g>
				<g>
					<path class="st0" d="M147.4,343.76h-45.71l2.58-7.84v-54.9l-2.58-7.84h45.71l11.2,11.2v13.44l-7.84,7.84l8.96,8.96v16.81
						L147.4,343.76z M138.1,292.78l-1.34-2.8l-3.36-1.68h-8.4l-1.12,1.12v9.52l1.12,1.12h8.4l3.36-1.68l1.34-2.8V292.78z
						 M138.77,319.67l-1.46-2.8l-4.48-2.24h-7.84l-1.12,1.12v10.65l1.68,1.68h7.28l4.48-2.24l1.46-2.8V319.67z"/>
					<path class="st0" d="M167.79,343.76l2.58-7.84v-54.9l-2.58-7.84h25.32l-2.58,7.84v54.9l2.58,7.84H167.79z"/>
					<path class="st0" d="M296.09,343.76l-7.51-22.41l-2.24-1.12h-5.6l-1.12,1.12v14.57l2.58,7.84h-24.76l2.58-7.84v-54.9
						l-2.58-7.84h45.15l13.44,13.45v19.05l-9.52,9.52l7.28,19.05l5.6,9.52H296.09z M295.86,296.14l-2.24-4.48l-4.48-2.24h-8.4
						l-1.12,1.12v13.44l1.12,1.12h8.4l4.48-2.24l2.24-4.48V296.14z"/>
					<polygon class="st0" points="244.32,326.95 226.39,326.95 224.71,325.27 224.71,317.71 225.83,316.59 237.43,316.59 
						244.72,319.06 244.72,297.88 237.43,300.35 225.83,300.35 224.71,299.22 224.71,297.26 224.71,290.54 225.83,289.42 
						243.2,289.42 252.39,292.45 246,273.18 202.53,273.18 205.1,281.02 205.1,335.92 202.53,343.76 247.68,343.76 254.4,323.59 
											"/>
				</g>
			</g>
		</g>
		<g>
			<polygon class="st1" points="143.68,0 129.09,14.59 129.09,101.56 143.68,116.14 175.2,116.14 175.2,91.76 153.48,91.76 
				153.48,24.39 208.75,24.39 223.26,33.82 223.26,24.39 223.26,24.33 223.26,0 			"/>
			<path class="st1" d="M208.78,75.44h45.16v21.71l-5.39-5.39H218.1v24.39h30.46l5.38-5.38v21.7h-45.16V75.44z M184.53,51.05v105.8
				h79.21l14.59-14.59v-29.65l-8.67-8.67l8.67-8.67V65.64l-14.59-14.59H184.53z"/>
		</g>
	</g>
	<g>
		<path class="st1" d="M91.58,413.1l-8.92,6.06c-2.93-4.9-6.81-7.36-11.72-7.36c-3.61,0-6.54,1.16-8.86,3.47
			c-2.25,2.32-3.41,5.38-3.41,9.13c0,7.56,4.97,12.47,12.26,12.47c4.9,0,8.79-2.45,11.72-7.36l8.92,6.06
			c-4.09,7.63-11.58,12.06-20.64,12.06c-6.81,0-12.54-2.25-17.24-6.68c-4.7-4.43-7.02-10.01-7.02-16.62
			c0-6.61,2.32-12.13,7.02-16.55c4.7-4.5,10.49-6.74,17.3-6.74C80,401.04,87.49,405.47,91.58,413.1z"/>
		<path class="st1" d="M150.03,401.86v25.89c0,5.93-1.91,10.76-5.65,14.44c-3.75,3.61-8.45,5.45-14.24,5.45
			c-5.79,0-10.56-1.84-14.31-5.45c-3.75-3.68-5.59-8.52-5.59-14.44v-25.89h11.72v26.77c0,5.11,3.34,8.24,8.18,8.24
			c4.84,0,8.17-3.13,8.17-8.24v-26.77H150.03z"/>
		<path class="st1" d="M210.81,446.82h-13.08l-10.15-13.97h-4.84v13.97h-11.72v-44.96h17.64c5.04,0,9.2,1.43,12.47,4.22
			c3.27,2.79,4.9,6.54,4.9,11.24c0,5.65-2.38,9.95-7.08,12.81L210.81,446.82z M182.74,412.08v10.56h6c3.27,0,5.38-2.11,5.38-5.31
			c0-3.2-2.11-5.25-5.38-5.25H182.74z"/>
		<path class="st1" d="M257.55,410.1l-7.83,5.99c-2.18-3.27-4.22-4.77-7.43-4.77c-2.66,0-4.02,0.95-4.02,2.86
			c0,1.64,0.95,2.52,3.88,3.68l5.18,2.18c7.83,3.27,11.51,7.22,11.51,13.56c0,4.29-1.57,7.77-4.7,10.29
			c-3.07,2.52-7.02,3.75-11.79,3.75c-8.11,0-14.65-3.88-17.92-10.08l7.9-6c2.86,3.88,6.2,5.79,10.01,5.79
			c3.07,0,4.63-1.09,4.63-3.27c0-1.98-1.02-2.59-4.56-4.16l-4.63-2.04c-7.56-3.34-11.38-7.83-11.38-13.56
			c0-4.02,1.43-7.22,4.36-9.61c2.93-2.45,6.74-3.68,11.38-3.68C249.37,401.04,254.48,404.04,257.55,410.1z"/>
		<path class="st1" d="M299.65,401.04c6.74,0,12.54,2.25,17.24,6.74c4.7,4.43,7.08,9.95,7.08,16.55c0,6.61-2.38,12.13-7.08,16.62
			c-4.7,4.43-10.49,6.68-17.24,6.68c-6.74,0-12.47-2.25-17.17-6.68c-4.7-4.5-7.02-10.01-7.02-16.62c0-6.61,2.32-12.13,7.02-16.55
			C287.19,403.29,292.91,401.04,299.65,401.04z M290.87,415.28c-2.25,2.32-3.41,5.31-3.41,9.06c0,3.75,1.16,6.81,3.41,9.13
			c2.25,2.25,5.25,3.41,8.86,3.41c3.54,0,6.47-1.16,8.79-3.41c2.32-2.32,3.47-5.38,3.47-9.13c0-3.75-1.16-6.75-3.47-9.06
			c-2.32-2.32-5.25-3.47-8.79-3.47C296.11,411.81,293.11,412.97,290.87,415.28z"/>
		<path class="st1" d="M373.1,410.1l-7.83,5.99c-2.18-3.27-4.22-4.77-7.43-4.77c-2.66,0-4.02,0.95-4.02,2.86
			c0,1.64,0.95,2.52,3.88,3.68l5.18,2.18c7.83,3.27,11.51,7.22,11.51,13.56c0,4.29-1.57,7.77-4.7,10.29
			c-3.07,2.52-7.02,3.75-11.79,3.75c-8.11,0-14.65-3.88-17.92-10.08l7.9-6c2.86,3.88,6.2,5.79,10.01,5.79
			c3.07,0,4.63-1.09,4.63-3.27c0-1.98-1.02-2.59-4.56-4.16l-4.63-2.04c-7.56-3.34-11.38-7.83-11.38-13.56
			c0-4.02,1.43-7.22,4.36-9.61c2.93-2.45,6.74-3.68,11.38-3.68C364.92,401.04,370.03,404.04,373.1,410.1z"/>
	</g>
	<rect y="368.82" class="st1" width="421.08" height="7.17"/>
</g>
</svg>
