<?xml version="1.0" encoding="UTF-8"?>
<svg width="16px" height="16px" viewBox="0 0 16 16" version="1.1" xmlns="http://www.w3.org/2000/svg" xmlns:xlink="http://www.w3.org/1999/xlink">
    <!-- Generator: sketchtool 51.2 (57519) - http://www.bohemiancoding.com/sketch -->
    <title>9678F3E9-465B-4A49-9092-83ADB1C1A44D</title>
    <desc>Created with sketchtool.</desc>
    <defs></defs>
    <g id="Welcome" stroke="none" stroke-width="1" fill="none" fill-rule="evenodd">
        <g id="Fernandez-Web-FINAL" transform="translate(-953.000000, -22.000000)" fill="#C0A44B" fill-rule="nonzero">
            <g id="Up" transform="translate(0.000000, -2.000000)">
                <path d="M964.982515,34.3573021 C964.700083,34.1917382 964.352955,34.1952164 964.071914,34.3621717 L962.648622,35.2101653 C962.330015,35.400077 961.932106,35.3778163 961.639934,35.149644 C961.134895,34.7552122 960.321684,34.091565 959.614212,33.384092 C958.906739,32.676619 958.243093,31.8634077 957.848661,31.358368 C957.620489,31.0661963 957.598228,30.6682862 957.78814,30.3496799 L958.636133,28.9263862 C958.803784,28.6453448 958.805175,28.2954344 958.639611,28.0130017 L956.551281,24.445724 C956.348847,24.1006831 955.946764,23.9309452 955.557897,24.0262489 C955.180161,24.1180743 954.689731,24.3420726 954.175648,24.8568514 C952.565922,26.4665785 951.710973,29.1816886 957.764488,35.2352086 C963.818003,41.2887286 966.532416,40.4344741 968.142837,38.8240514 C968.658311,38.308577 968.881614,37.8174502 968.974135,37.4390183 C969.068047,37.0508472 968.901092,36.6515459 968.556747,36.4498082 C967.696928,35.9468555 965.842334,34.8609505 964.982515,34.3573021 Z" id="icono_telefono"></path>
            </g>
        </g>
    </g>
</svg>