<?xml version="1.0" encoding="UTF-8"?>
<svg width="16px" height="12px" viewBox="0 0 16 12" version="1.1" xmlns="http://www.w3.org/2000/svg" xmlns:xlink="http://www.w3.org/1999/xlink">
    <!-- Generator: sketchtool 51.2 (57519) - http://www.bohemiancoding.com/sketch -->
    <title>F7C3B439-C20E-47D8-B9B8-C7E5C906990E</title>
    <desc>Created with sketchtool.</desc>
    <defs></defs>
    <g id="Welcome" stroke="none" stroke-width="1" fill="none" fill-rule="evenodd">
        <g id="Fernandez-Web-FINAL" transform="translate(-1168.000000, -23.000000)" fill="#BD9E44" fill-rule="nonzero">
            <g id="Up" transform="translate(0.000000, -2.000000)">
                <g id="Mail" transform="translate(1168.000000, 21.000000)">
                    <path d="M9.97938171,10.2680413 L15.6362914,15.1168208 C15.4304926,15.3091011 15.1537086,15.4285714 14.84932,15.4285714 L1.15068,15.4285714 C0.844787429,15.4285714 0.567128,15.3109202 0.361220571,15.1189537 L6.02061829,10.2680413 L8,12.0000001 L9.97938171,10.2680413 Z M8,10.8571429 L0.363708571,4.31175061 C0.569507429,4.11947026 0.846291429,4 1.15068,4 L14.84932,4 C15.1552126,4 15.432872,4.11765123 15.6387794,4.30961775 L8,10.8571429 Z M16,14.4978382 L10.4769806,9.80440875 L16,5.00048229 L16,14.4978382 Z M0,14.4978376 L0,5.00360216 L5.52301943,9.80440848 L0,14.4978376 Z" id="icono_mail"></path>
                </g>
            </g>
        </g>
    </g>
</svg>